<?xml version="1.0" encoding="UTF-8" standalone="no"?>
<!-- Created with Inkscape (http://www.inkscape.org/) -->

<svg
   xmlns:dc="http://purl.org/dc/elements/1.1/"
   xmlns:cc="http://creativecommons.org/ns#"
   xmlns:rdf="http://www.w3.org/1999/02/22-rdf-syntax-ns#"
   xmlns:svg="http://www.w3.org/2000/svg"
   xmlns="http://www.w3.org/2000/svg"
   xmlns:sodipodi="http://sodipodi.sourceforge.net/DTD/sodipodi-0.dtd"
   xmlns:inkscape="http://www.inkscape.org/namespaces/inkscape"
   width="280"
   height="60"
   id="svg2"
   version="1.1"
   inkscape:version="0.48.3.1 r9886"
   sodipodi:docname="adstack.svg">
  <defs
     id="defs4" />
  <sodipodi:namedview
     id="base"
     pagecolor="#ffffff"
     bordercolor="#666666"
     borderopacity="1.0"
     inkscape:pageopacity="0.0"
     inkscape:pageshadow="2"
     inkscape:zoom="4"
     inkscape:cx="139.85808"
     inkscape:cy="27.58631"
     inkscape:document-units="px"
     inkscape:current-layer="layer1"
     showgrid="false"
     inkscape:window-width="1600"
     inkscape:window-height="846"
     inkscape:window-x="0"
     inkscape:window-y="327"
     inkscape:window-maximized="1" />
  <metadata
     id="metadata7">
    <rdf:RDF>
      <cc:Work
         rdf:about="">
        <dc:format>image/svg+xml</dc:format>
        <dc:type
           rdf:resource="http://purl.org/dc/dcmitype/StillImage" />
        <dc:title />
      </cc:Work>
    </rdf:RDF>
  </metadata>
  <g
     inkscape:label="Layer 1"
     inkscape:groupmode="layer"
     id="layer1"
     transform="translate(0,-992.36218)">
    <path
       inkscape:connector-curvature="0"
       id="path2995"
       style="font-size:80px;font-style:normal;font-variant:normal;font-weight:bold;font-stretch:normal;line-height:125%;letter-spacing:-2.75000000000000000px;word-spacing:0px;fill:#151515;fill-opacity:1;stroke:none;font-family:Roboto;-inkscape-font-specification:Sans Bold"
       d="m 0.8,1051.0419 19.179687,-56.87506 11.679688,0 19.10156,56.87506 -11.91406,0 -3.867188,-12.2656 -18.4375,0 -3.828125,12.2656 -11.914062,0 m 18.554687,-21.211 12.851563,0 -6.289063,-20.039 -0.234375,0 -6.328125,20.039" />
    <path
       inkscape:connector-curvature="0"
       id="path2997"
       style="font-size:80px;font-style:normal;font-variant:normal;font-weight:bold;font-stretch:normal;line-height:125%;letter-spacing:-2.75000000000000000px;word-spacing:0px;fill:#151515;fill-opacity:1;stroke:none;font-family:Roboto;-inkscape-font-specification:Sans Bold"
       d="m 49.651565,1031.0809 0,-0.8203 c -10e-6,-6.6666 1.43229,-12.0442 4.29687,-16.1328 2.89062,-4.0885 6.95311,-6.1328 12.1875,-6.1328 2.10936,0 4.0104,0.4558 5.70313,1.3672 1.69268,0.9115 3.17705,2.2136 4.45312,3.9062 l 0,-19.92656 11.44531,0 0,57.70006 -10.12662,0 -0.5765,-5.1953 c -1.32815,1.9531 -2.90367,3.4505 -4.72656,4.4922 -1.82294,1.0156 -3.90627,1.5234 -6.25,1.5234 -5.18231,0 -9.21876,-1.901 -12.10938,-5.7031 -2.86458,-3.8021 -4.29688,-8.8281 -4.29687,-15.0782 m 11.36719,0 c -2e-5,3.698 0.62498,6.6146 1.875,8.75 1.24998,2.1094 3.28123,3.1641 6.09375,3.1641 1.6406,0 3.07289,-0.3255 4.29687,-0.9766 1.22393,-0.677 2.22653,-1.6536 3.00781,-2.9296 l 0,-18.0079 c -0.78128,-1.328 -1.78388,-2.3567 -3.00781,-3.0859 -1.19794,-0.7552 -2.60419,-1.1328 -4.21875,-1.1328 -2.78648,0 -4.83075,1.237 -6.13281,3.7109 -1.27606,2.474 -1.91408,5.7032 -1.91406,9.6875 l 0,0.8203"
       sodipodi:nodetypes="csccccccccccsccccsccccccsc" />
    <path
       inkscape:connector-curvature="0"
       id="path2999"
       style="font-size:80px;font-style:normal;font-variant:normal;font-weight:bold;font-stretch:normal;line-height:125%;letter-spacing:-2.75000000000000000px;word-spacing:0px;fill:#151515;fill-opacity:1;stroke:none;font-family:Roboto;-inkscape-font-specification:Sans Bold"
       d="m 91.424995,1033.6591 0.0781,-0.2344 11.054695,0 c -2e-5,3.3594 0.98957,5.8333 2.96875,7.4219 1.97914,1.5885 4.66143,2.3828 8.04687,2.3828 3.04685,0 5.36455,-0.638 6.95313,-1.9141 1.61455,-1.276 2.42184,-2.9817 2.42187,-5.1172 -3e-5,-2.1875 -0.76826,-3.9453 -2.30469,-5.2734 -1.51044,-1.3281 -4.17971,-2.5781 -8.00781,-3.75 -6.56252,-1.9791 -11.54949,-4.3099 -14.960945,-6.9922 -3.38542,-2.6823 -5.07812,-6.3411 -5.07812,-10.9766 0,-4.6614 1.91406,-8.4635 5.74219,-11.40624 3.828115,-2.9687 8.710925,-4.45307 14.648435,-4.45313 6.30206,6e-5 11.38018,1.5886 15.23437,4.76563 3.72391,3.07294 5.57287,5.36984 5.54687,10.29174 0.0527,0.6851 0.0822,-0.322 0.0222,0.343 l -11.15495,0 c -0.12503,-1.901 -0.85941,-2.9133 -2.57812,-4.4238 -1.71878,-1.5364 -4.12763,-2.3046 -7.22657,-2.3047 -2.81252,10e-5 -4.98699,0.6772 -6.52343,2.0313 -1.53648,1.3542 -2.30471,3.086 -2.30469,5.1953 -2e-5,1.9271 0.83332,3.5156 2.5,4.7656 1.66665,1.224 4.54425,2.5261 8.63281,3.9063 6.24997,1.7708 11.01559,4.0886 14.29688,6.9531 3.2812,2.8386 4.92183,6.5886 4.92187,11.25 -4e-5,4.8698 -1.90108,8.711 -5.70312,11.5234 -3.80212,2.8125 -8.82816,4.2188 -15.07813,4.2188 -6.11981,0 -11.3672,-1.5234 -15.742185,-4.5703 -4.27083,-2.9688 -6.40625,-7.3438 -6.40625,-13.125 0,-0.1563 0,-0.3255 0,-0.5078"
       sodipodi:nodetypes="ccccscccccsccccccccccccccsscsc" />
    <path
       inkscape:connector-curvature="0"
       id="path3001"
       style="font-size:80px;font-style:normal;font-variant:normal;font-weight:bold;font-stretch:normal;line-height:125%;letter-spacing:-2.75000000000000000px;word-spacing:0px;fill:#151515;fill-opacity:1;stroke:none;font-family:Roboto;-inkscape-font-specification:Sans Bold"
       d="m 133.79237,1016.784 0,-8.0078 6.6717,0 0,-10.35154 11.36718,0 0,10.35154 7.14843,0 0,8.0078 -7.14843,0 0,21.5235 c -2e-5,1.6406 0.33852,2.8125 1.01562,3.5156 0.70311,0.7032 1.61456,1.0547 2.73438,1.0547 0.59893,0 2.95289,0.074 3.39563,0.022 l 0,8.142 -6.24719,0 c -3.9323,0 -6.96616,-0.2603 -9.10156,-2.4218 -2.10938,-2.1614 -3.16407,-5.5859 -3.16406,-10.2734 l 0,-21.5626 -6.6717,0"
       sodipodi:nodetypes="cccccccccscsccscscc" />
    <path
       inkscape:connector-curvature="0"
       id="path3003"
       style="font-size:80px;font-style:normal;font-variant:normal;font-weight:bold;font-stretch:normal;line-height:125%;letter-spacing:-2.75000000000000000px;word-spacing:0px;fill:#151515;fill-opacity:1;stroke:none;font-family:Roboto;-inkscape-font-specification:Sans Bold"
       d="m 161.01093,1039.1278 c 0,-4.1406 1.58854,-7.3437 4.76563,-9.6094 3.20311,-2.2916 7.86457,-3.4374 13.98437,-3.4375 l 6.40625,0 0,-3.3593 c -2e-5,-2.0312 -0.53388,-3.6068 -1.60156,-4.7266 -1.06773,-1.1198 -2.65627,-1.6797 -4.76562,-1.6797 -1.84898,0 -3.28127,0.4558 -4.29688,1.3672 -0.9896,0.8854 -1.48439,2.1094 -1.48437,3.6719 l -10.97657,0 -0.0781,-0.2344 c -1e-5,-0.1823 -1e-5,-0.3645 0,-0.5469 -0.026,-3.3333 1.52343,-6.2239 4.64843,-8.6719 3.28124,-2.6041 7.59113,-3.9062 12.92969,-3.9062 5.0781,0 9.17966,1.2761 12.30469,3.8281 3.151,2.5521 4.72652,6.211 4.72656,10.9766 l 0,17.4609 c 0.0625,1.9792 0.23694,3.8725 0.42969,5.586 0.24996,1.6823 0.57548,3.4765 1.00781,5.1953 l -11.63008,0 c -0.32294,-0.9948 -0.53677,-2.0417 -0.693,-3.0469 -0.13023,-1.0989 -0.19517,-2.1614 -0.32536,-3.2812 -1.1719,2.0573 -2.72137,3.763 -4.64843,5.1171 -1.92711,1.3542 -4.21877,2.0313 -6.875,2.0313 -4.4271,0 -7.83855,-1.1328 -10.23437,-3.3984 -2.39583,-2.2917 -3.59375,-5.4037 -3.59375,-9.336 m 11.40625,-0.3906 c -2e-5,1.4323 0.45572,2.5781 1.36718,3.4375 0.93748,0.8333 2.22655,1.25 3.86719,1.25 1.97914,0 3.74997,-0.4948 5.3125,-1.4844 1.56247,-0.9896 2.63018,-2.1354 3.20313,-3.4375 l 0,-5.9765 -6.40625,0 c -2.42189,0 -4.25784,0.5989 -5.50782,1.7968 -1.22397,1.198 -1.83595,2.6693 -1.83593,4.4141"
       sodipodi:nodetypes="ccccsccccccccccscccccccsccccscccscc" />
    <path
       inkscape:connector-curvature="0"
       id="path3005"
       style="font-size:80px;font-style:normal;font-variant:normal;font-weight:bold;font-stretch:normal;line-height:125%;letter-spacing:-2.75000000000000000px;word-spacing:0px;fill:#151515;fill-opacity:1;stroke:none;font-family:Roboto;-inkscape-font-specification:Sans Bold"
       d="m 200.925,1030.5341 0,-1.1719 c 0,-6.1979 1.69271,-11.3021 5.07812,-15.3125 3.41145,-4.0364 8.22915,-6.0547 14.45313,-6.0547 5.15622,0 9.30986,1.4844 12.46093,4.4531 3.04684,2.8646 4.57029,6.6146 4.57032,11.25 -3e-5,0.1563 -3e-5,0.3126 0,0.4688 l -0.0781,0.2344 -10.39062,0 c -2e-5,-2.1875 -0.58596,-3.9974 -1.75781,-5.4297 -1.14587,-1.4584 -2.74742,-2.1875 -4.80469,-2.1876 -2.94273,10e-5 -5.03907,1.185 -6.28906,3.5548 -1.22398,2.3437 -1.83596,5.3515 -1.83594,9.0234 l 0,1.1719 c -1e-5,3.75 0.61196,6.7838 1.83594,9.1015 1.24999,2.3178 3.37238,3.4766 6.36718,3.4766 1.97914,0 3.55467,-0.5859 4.72657,-1.7578 1.17185,-1.1979 1.75779,-2.7865 1.75781,-4.7656 l 10.39062,0 0.0781,0.2343 c -3e-5,0.1303 -3e-5,0.2605 0,0.3907 -3e-5,4.0625 -1.58858,7.5 -4.76563,10.3125 -3.28127,2.8645 -7.34377,4.3099 -12.1875,4.3359 -6.25002,0 -11.08074,-1.9922 -14.49219,-5.9766 -3.41146,-4.0104 -5.11718,-9.1276 -5.11718,-15.3515" />
    <path
       inkscape:connector-curvature="0"
       id="path3007"
       style="font-size:80px;font-style:normal;font-variant:normal;font-weight:bold;font-stretch:normal;line-height:125%;letter-spacing:-2.75000000000000000px;word-spacing:0px;fill:#151515;fill-opacity:1;stroke:none;font-family:Roboto;-inkscape-font-specification:Sans Bold"
       d="m 240.62812,1051.0419 0,-57.70006 11.40625,0 0,31.33286 2.53906,0 10.11719,-15.8985 13.20313,0 -13.75,19.2579 15.625,23.0078 -13.125,0 -11.71875,-17.6953 -2.89063,0 0,17.6953 -11.40625,0"
       sodipodi:nodetypes="cccccccccccccc" />
    <flowRoot
       xml:space="preserve"
       id="flowRoot3009"
       style="font-size:40px;font-style:normal;font-variant:normal;font-weight:bold;font-stretch:normal;line-height:125%;letter-spacing:0px;word-spacing:0px;fill:#151515;fill-opacity:1;stroke:none;font-family:Roboto;-inkscape-font-specification:Sans Bold"
       transform="translate(0,952.86216)"><flowRegion
         id="flowRegion3011"><rect
           id="rect3013"
           width="438.5"
           height="131"
           x="-67"
           y="-36"
           style="fill:#151515;fill-opacity:1" /></flowRegion><flowPara
         id="flowPara3015"></flowPara></flowRoot>  </g>
</svg>
