<?xml version="1.0" encoding="UTF-8" standalone="no"?>
<!-- Created with Inkscape (http://www.inkscape.org/) -->
<svg id="svg2" xmlns:rdf="http://www.w3.org/1999/02/22-rdf-syntax-ns#" xmlns="http://www.w3.org/2000/svg" height="50" width="290" version="1.1" xmlns:cc="http://creativecommons.org/ns#" xmlns:dc="http://purl.org/dc/elements/1.1/">
 <metadata id="metadata7">
  <rdf:RDF>
   <cc:Work rdf:about="">
    <dc:format>image/svg+xml</dc:format>
    <dc:type rdf:resource="http://purl.org/dc/dcmitype/StillImage"/>
    <dc:title/>
   </cc:Work>
  </rdf:RDF>
 </metadata>
 <g id="layer1" transform="translate(0,-1002.3622)">
  <path id="path2995" d="m0.65582,1050.9,15.643-46.387,9.5259,0,15.579,46.387-9.717,0-3.154-10.004-15.037,0-3.1222,10.004-9.717,0m15.133-17.3,10.482,0-5.1293-16.344-0.19116,0-5.1612,16.344" fill="#464646"/>
  <path id="path2997" d="m41.075,1034.6,0-0.6691c-0.000008-5.4371,1.1682-9.8232,3.5045-13.158,2.3576-3.3346,5.6709-5.0019,9.94-5.0019,1.7204,0,3.2708,0.3717,4.6514,1.115,1.3805,0.7435,2.5912,1.6015,3.6319,2.9821v-16.048h9.3347v47.06h-9.3346v-3.6256c-1.0832,1.5929-1.763,2.2026-3.2497,3.0521-1.4868,0.8283-3.1859,1.2425-5.0974,1.2425-4.2266,0-7.5187-1.5504-9.8763-4.6514-2.3363-3.1009-3.5045-7.2001-3.5045-12.298m9.271,0c-0.00002,3.016,0.50973,5.3947,1.5292,7.1364,1.0195,1.7204,2.6761,2.5806,4.97,2.5806,1.3381,0,2.5062-0.2654,3.5045-0.7965,0.99822-0.5521,1.8159-1.3487,2.4532-2.3894v-14.687c-0.63722-1.0831-1.4549-1.9221-2.4532-2.5168-0.97702-0.6159-2.124-0.9239-3.4408-0.9239-2.2726,0-3.9399,1.0089-5.0018,3.0266-1.0408,2.0178-1.5611,4.6514-1.5611,7.901v0.6691" fill="#464646"/>
  <path id="path2999" d="m75.434,1036.7,0.0637-0.1912,9.0161,0c-0.00002,2.7399,0.80708,4.7576,2.4213,6.0533,1.6142,1.2956,3.8018,1.9433,6.563,1.9433,2.485,0,4.3753-0.5202,5.6709-1.561,1.3168-1.0407,1.9752-2.432,1.9752-4.1736-0.00003-1.7841-0.62658-3.2177-1.8797-4.3009-1.2319-1.0832-3.4089-2.1027-6.5311-3.0585-5.3523-1.6141-9.4197-3.5151-12.202-5.7028-2.7611-2.1877-4.1417-5.1717-4.1417-8.9525,0-3.8017,1.5611-6.9027,4.6833-9.3027,3.1222-2.4213,7.1046-3.632,11.947-3.632,5.1399,0,9.2816,1.2957,12.425,3.8869,3.0372,2.5062,4.5452,4.3795,4.524,8.3937,0.043,0.5589,0.067-0.2625,0.0181,0.2798h-9.0979c-0.10198-1.5504-0.70093-2.376-2.1027-3.608-1.4018-1.2531-3.3665-1.8795-5.8939-1.8797-2.2939,0.0002-4.0674,0.5523-5.3204,1.6568-1.2531,1.1044-1.8797,2.5169-1.8797,4.2372-0.00001,1.5718,0.67965,2.8673,2.039,3.8867,1.3593,0.9983,3.7062,2.0603,7.0408,3.186,5.0974,1.4443,8.9842,3.3347,11.66,5.6709,2.6761,2.3151,4.0142,5.3736,4.0142,9.1754-0.00004,3.9717-1.5505,7.1046-4.6514,9.3983-3.101,2.2939-7.2002,3.4409-12.298,3.4409-4.9913,0-9.271-1.2425-12.839-3.7275-3.4832-2.4213-5.2249-5.9895-5.2249-10.705v-0.4142" fill="#464646"/>
  <path id="path3001" d="m109.99,1022.9,0-6.5311,5.4414,0,0-8.4426,9.271,0,0,8.4426,5.8302,0,0,6.5311-5.8302,0,0,17.554c-0.00002,1.338,0.27609,2.2937,0.82833,2.8671,0.57345,0.5736,1.3168,0.8603,2.2301,0.8603,0.48847,0,2.4084,0.061,2.7694,0.017v6.6405h-5.0952c-3.2072,0-5.6815-0.2124-7.4232-1.9752-1.7204-1.7628-2.5806-4.5558-2.5806-8.3789v-17.586h-5.4414" fill="#464646"/>
  <path id="path3003" d="m132.77,1041.2c0-3.377,1.5057-5.8453,4.0968-7.6931,2.6124-1.869,5.6213-2.9477,10.613-2.9478h5.2249v-2.7398c-0.00001-1.6567-0.43543-2.9417-1.3062-3.855-0.87083-0.9133-2.1664-1.3699-3.8868-1.3699-1.508,0-2.6762,0.3717-3.5045,1.115-0.80711,0.7221-1.2106,1.7205-1.2106,2.9948h-8.9524l-0.0637-0.1912c-0.00001-0.1486-0.00001-0.2972,0-0.446-0.0212-2.7186,1.2425-5.0762,3.7912-7.0727,2.6762-2.1239,6.1913-3.1859,10.545-3.1859,4.1417,0,7.4869,1.0408,10.036,3.1222,2.5699,2.0814,3.8549,5.0655,3.855,8.9524v14.241l-0.00011,8.7931h-9.1436l0.00014-4.3201c-2.0905,3.5519-5.6702,4.8084-9.3984,4.8449-3.6107,0-5.7639-0.9327-7.7179-2.7805-1.954-1.869-2.9775-4.2542-2.9775-7.4614m8.7201-0.3185c-0.00002,1.1682,0.37168,2.1027,1.1151,2.8036,0.76458,0.6796,1.8159,1.0195,3.154,1.0195,1.6142,0,3.0584-0.4036,4.3328-1.2107,1.2743-0.8071,2.1452-1.7416,2.6124-2.8036v-4.8744h-5.2249c-1.9753,0-3.4727,0.4885-4.4921,1.4655-0.99827,0.9771-1.4974,2.177-1.4974,3.6001" fill="#464646"/>
  <path id="path3005" d="m164.74,1034.2,0-0.9558c0-5.055,1.3806-9.2179,4.1417-12.489,2.7824-3.2921,6.7116-4.9382,11.788-4.9382,4.2054,0,7.593,1.2107,10.163,3.6319,2.485,2.3363,3.7275,5.3948,3.7275,9.1754-0.00003,0.1275-0.00003,0.2549,0,0.3824l-0.0637,0.1911h-8.4745c-0.00003-1.784-0.47791-3.2603-1.4337-4.4284-0.93457-1.1894-2.2408-1.784-3.9187-1.7842-2.4001,0.0002-4.1098,0.9665-5.1293,2.8993-0.99827,1.9115-1.4974,4.3646-1.4974,7.3594v0.9558c-0.00002,3.0584,0.4991,5.5328,1.4974,7.4231,1.0195,1.8904,2.7505,2.8355,5.193,2.8355,1.6142,0,2.8992-0.4779,3.855-1.4337,0.95575-0.977,1.4336-2.2726,1.4337-3.8867h8.4745l0.0637,0.1911c-0.00003,0.1065-0.00003,0.2123,0,0.3185-0.00003,3.3134-1.2956,6.117-3.8868,8.4109-2.6762,2.3363-5.9895,3.5151-9.94,3.5363-5.0975,0-9.0374-1.6248-11.82-4.8745-2.7824-3.2709-4.1735-7.4444-4.1735-12.52" fill="#464646"/>
  <path id="path3007" d="m197.12,1050.9,0-47.06,9.3028,0,0,25.555,2.0708,0,8.2515-12.967,10.768,0-11.214,15.707,12.744,18.765-10.705,0-9.5577-14.432-2.3576,0,0,14.432-9.3028,0" fill="#464646"/>
  <flowRoot id="flowRoot3009" style="letter-spacing:0px;word-spacing:0px;" font-weight="bold" xml:space="preserve" font-size="40px" transform="translate(0,952.86216)" font-stretch="normal" line-height="125%" font-variant="normal" font-style="normal" font-family="Roboto" fill="#000000"><flowRegion id="flowRegion3011"><rect id="rect3013" height="131" width="438.5" y="-36" x="-67" fill="#000"/></flowRegion><flowPara id="flowPara3015"/></flowRoot>
 </g>
</svg>
