<?xml version="1.0" encoding="UTF-8" standalone="no"?>
<!-- Created with Inkscape (http://www.inkscape.org/) -->
<svg id="svg2" xmlns:rdf="http://www.w3.org/1999/02/22-rdf-syntax-ns#" xmlns="http://www.w3.org/2000/svg" height="40" width="240" version="1.1" xmlns:cc="http://creativecommons.org/ns#" xmlns:dc="http://purl.org/dc/elements/1.1/">
 <metadata id="metadata7">
  <rdf:RDF>
   <cc:Work rdf:about="">
    <dc:format>image/svg+xml</dc:format>
    <dc:type rdf:resource="http://purl.org/dc/dcmitype/StillImage"/>
    <dc:title/>
   </cc:Work>
  </rdf:RDF>
 </metadata>
 <g id="layer1" transform="translate(0,-1012.3622)">
  <path id="path2995" d="m46.859,1051.3,12.625-37.437,7.688,0,12.573,37.437-7.8422,0-2.5455-8.0737-12.136,0-2.5198,8.0737-7.8422,0m12.213-13.962,8.4593,0-4.1397-13.19-0.15428,0-4.1654,13.19" fill="#000"/>
  <path id="path2997" d="m79.481,1038.2,0-0.54c-0.000007-4.3881,0.94278-7.9279,2.8283-10.619,1.9027-2.6912,4.5768-4.0368,8.0222-4.0368,1.3884,0,2.6398,0.3,3.754,0.8999,1.1142,0.6,2.0912,1.2925,2.9312,2.4067v-12.952h7.5337v37.98h-7.5336v-2.9261c-0.87422,1.2856-1.4228,1.7776-2.6227,2.4632-1.1999,0.6685-2.5712,1.0028-4.1139,1.0028-3.4112,0-6.0681-1.2513-7.9708-3.754-1.8856-2.5026-2.8283-5.8109-2.8283-9.9249m7.4823,0c-0.00002,2.4341,0.41138,4.3539,1.2342,5.7595,0.82277,1.3885,2.1598,2.0827,4.0111,2.0827,1.0799,0,2.0227-0.2142,2.8283-0.6428,0.80563-0.4456,1.4656-1.0885,1.9798-1.9284v-11.853c-0.51427-0.8741-1.1742-1.5512-1.9798-2.0312-0.78852-0.4971-1.7142-0.7456-2.7769-0.7456-1.8341,0-3.1797,0.8142-4.0368,2.4426-0.83994,1.6285-1.2599,3.754-1.2599,6.3766v0.54" fill="#000"/>
  <path id="path2999" d="m107.21,1039.9,0.0514-0.1543,7.2766,0c-0.00002,2.2113,0.65136,3.8397,1.9541,4.8854,1.3027,1.0456,3.0683,1.5684,5.2967,1.5684,2.0055,0,3.5311-0.4199,4.5768-1.2599,1.0628-0.8399,1.5941-1.9627,1.5942-3.3683-0.00002-1.4399-0.50569-2.5969-1.517-3.4711-0.99422-0.8742-2.7512-1.697-5.271-2.4684-4.3197-1.3027-7.6022-2.8369-9.8478-4.6025-2.2284-1.7656-3.3426-4.1739-3.3426-7.2252,0-3.0682,1.2599-5.5709,3.7797-7.5079,2.5198-1.9541,5.7338-2.9312,9.6421-2.9312,4.1482,0,7.4908,1.0457,10.028,3.1369,2.4512,2.0227,3.6682,3.5346,3.6511,6.7743,0.0347,0.451,0.0541-0.2119,0.0146,0.2258h-7.3426c-0.0823-1.2513-0.56569-1.9176-1.697-2.9119-1.1314-1.0113-2.7169-1.5169-4.7568-1.517-1.8513,0.0001-3.2826,0.4457-4.2939,1.3371-1.0114,0.8913-1.517,2.0313-1.517,3.4197-0.00001,1.2685,0.54852,2.3141,1.6456,3.1368,1.097,0.8057,2.9912,1.6628,5.6824,2.5713,4.1139,1.1656,7.2508,2.6913,9.4107,4.5768,2.1598,1.8684,3.2397,4.3368,3.2397,7.4051-0.00003,3.2054-1.2514,5.7338-3.754,7.585-2.5027,1.8513-5.811,2.777-9.9249,2.777-4.0283,0-7.4823-1.0028-10.362-3.0083-2.8112-1.9542-4.2168-4.8339-4.2168-8.6393v-0.3343" fill="#000"/>
  <path id="path3001" d="m135.1,1028.8,0-5.271,4.3915,0,0-6.8137,7.4822,0,0,6.8137,4.7053,0,0,5.271-4.7053,0,0,14.168c-0.00002,1.0799,0.22282,1.8512,0.66851,2.314,0.46281,0.4629,1.0628,0.6943,1.7999,0.6943,0.39423,0,1.9437,0.049,2.2351,0.014v5.3593h-4.1121c-2.5884,0-4.5854-0.1714-5.9909-1.5941-1.3885-1.4227-2.0827-3.6768-2.0827-6.7623v-14.193h-4.3915" fill="#000"/>
  <path id="path3003" d="m153.48,1043.5c0-2.7255,1.2152-4.7175,3.3063-6.2088,2.1084-1.5084,4.5367-2.379,8.565-2.3791h4.2168v-2.2112c-0.00001-1.337-0.35142-2.3741-1.0542-3.1112-0.70281-0.7371-1.7484-1.1056-3.1369-1.1056-1.217,0-2.1598,0.3-2.8283,0.8999-0.65139,0.5828-0.97707,1.3885-0.97706,2.417h-7.2251l-0.0514-0.1543c-0.00001-0.12-0.00001-0.2399,0-0.36-0.0171-2.1941,1.0028-4.0968,3.0597-5.7081,2.1598-1.7141,4.9967-2.5712,8.5107-2.5712,3.3426,0,6.0424,0.84,8.0994,2.5198,2.0741,1.6798,3.1112,4.0882,3.1112,7.2251v11.493l-0.00009,7.0966h-7.3794l0.00012-3.4866c-1.6872,2.8666-4.5762,3.8807-7.5851,3.9101-2.9141,0-4.6518-0.7527-6.2288-2.244-1.577-1.5084-2.403-3.4334-2.403-6.0218m7.0377-0.2571c-0.00001,0.9428,0.29997,1.697,0.89993,2.2627,0.61707,0.5485,1.4656,0.8228,2.5455,0.8228,1.3027,0,2.4684-0.3257,3.4968-0.9771,1.0285-0.6514,1.7313-1.4056,2.1084-2.2627v-3.9339h-4.2168c-1.5942,0-2.8026,0.3942-3.6254,1.1827-0.80566,0.7886-1.2085,1.757-1.2085,2.9055" fill="#000"/>
  <path id="path3005" d="m179.29,1037.8,0-0.7714c0-4.0797,1.1142-7.4394,3.3426-10.079,2.2455-2.6569,5.4167-3.9854,9.5135-3.9854,3.394,0,6.128,0.9771,8.2022,2.9312,2.0055,1.8855,3.0083,4.3539,3.0083,7.4051-0.00002,0.1029-0.00002,0.2057,0,0.3086l-0.0514,0.1542h-6.8394c-0.00002-1.4398-0.3857-2.6312-1.157-3.574-0.75425-0.9599-1.8084-1.4398-3.1626-1.4399-1.937,0.0001-3.3169,0.78-4.1397,2.3399-0.80566,1.5427-1.2085,3.5225-1.2085,5.9395v0.7714c-0.00001,2.4683,0.40281,4.4653,1.2085,5.9909,0.82279,1.5256,2.2198,2.2884,4.1911,2.2884,1.3027,0,2.3398-0.3857,3.1112-1.1571,0.77135-0.7885,1.157-1.8341,1.157-3.1368h6.8394l0.0514,0.1542c-0.00002,0.086-0.00002,0.1714,0,0.2571-0.00002,2.6741-1.0457,4.9368-3.1369,6.7881-2.1598,1.8855-4.8339,2.8369-8.0222,2.854-4.114,0-7.2937-1.3113-9.5392-3.934-2.2455-2.6398-3.3683-6.0081-3.3683-10.105" fill="#000"/>
  <path id="path3007" d="m205.42,1051.3,0-37.98,7.508,0,0,20.624,1.6713,0,6.6595-10.465,8.6907,0-9.0507,12.676,10.285,15.144-8.6393,0-7.7137-11.648-1.9027,0,0,11.648-7.508,0" fill="#000"/>
  <flowRoot id="flowRoot3009" style="letter-spacing:0px;word-spacing:0px;" font-weight="bold" xml:space="preserve" font-size="40px" transform="translate(0,952.86216)" font-stretch="normal" line-height="125%" font-variant="normal" font-style="normal" font-family="Roboto" fill="#000000"><flowRegion id="flowRegion3011"><rect id="rect3013" height="131" width="438.5" y="-36" x="-67" fill="#000"/></flowRegion><flowPara id="flowPara3015"/></flowRoot>
  <g id="g3809" fill="#000" transform="matrix(0.66413383,0,0,0.66413383,0.4,352.95286)">
   <rect id="rect3761" opacity="0.938" height="18" width="18" y="1034.4" x="0"/>
   <rect id="rect3761-2" opacity="0.938" height="18" width="18" y="1034.4" x="20"/>
   <rect id="rect3761-7" opacity="0.938" height="18" width="18" y="1034.4" x="40"/>
   <rect id="rect3761-3" opacity="0.938" height="18" width="18" y="1014.4" x="20"/>
   <rect id="rect3761-35" opacity="0.938" height="18" width="18" y="1014.4" x="40"/>
   <rect id="rect3761-29" opacity="0.938" height="18" width="18" y="994.36" x="40"/>
  </g>
 </g>
</svg>
