<?xml version="1.0" encoding="UTF-8" standalone="no"?>
<!-- Created with Inkscape (http://www.inkscape.org/) -->

<svg
   xmlns:dc="http://purl.org/dc/elements/1.1/"
   xmlns:cc="http://creativecommons.org/ns#"
   xmlns:rdf="http://www.w3.org/1999/02/22-rdf-syntax-ns#"
   xmlns:svg="http://www.w3.org/2000/svg"
   xmlns="http://www.w3.org/2000/svg"
   xmlns:sodipodi="http://sodipodi.sourceforge.net/DTD/sodipodi-0.dtd"
   xmlns:inkscape="http://www.inkscape.org/namespaces/inkscape"
   width="200"
   height="100"
   id="svg6805"
   version="1.1"
   inkscape:version="0.48.3.1 r9886"
   sodipodi:docname="New document 4">
  <defs
     id="defs6807" />
  <sodipodi:namedview
     id="base"
     pagecolor="#ffffff"
     bordercolor="#666666"
     borderopacity="1.0"
     inkscape:pageopacity="0.0"
     inkscape:pageshadow="2"
     inkscape:zoom="1"
     inkscape:cx="75.220426"
     inkscape:cy="24.054347"
     inkscape:document-units="px"
     inkscape:current-layer="g7610"
     showgrid="false"
     inkscape:window-width="1197"
     inkscape:window-height="710"
     inkscape:window-x="2137"
     inkscape:window-y="385"
     inkscape:window-maximized="0" />
  <metadata
     id="metadata6810">
    <rdf:RDF>
      <cc:Work
         rdf:about="">
        <dc:format>image/svg+xml</dc:format>
        <dc:type
           rdf:resource="http://purl.org/dc/dcmitype/StillImage" />
        <dc:title></dc:title>
      </cc:Work>
    </rdf:RDF>
  </metadata>
  <g
     inkscape:label="Layer 1"
     inkscape:groupmode="layer"
     id="layer1"
     transform="translate(0,-952.3622)">
    <g
       id="g7610">
      <g
         id="g7615"
         transform="matrix(0.55650725,0,0,0.55650725,78.63283,403.87844)">
        <path
           inkscape:connector-curvature="0"
           id="path1256"
           style="fill:#151515;fill-opacity:1;fill-rule:evenodd;stroke:none"
           d="m 56.780604,1045.6251 c -3.434039,2.3557 -8.925018,2.8197 -12.805695,4.7664 -16.687849,6.4946 -23.756812,21.6726 -35.0770635,33.663 -2.0091077,2.1829 -4.3725892,3.5737 -8.03141664,4.0035 -4.62255676,-0.1879 -5.85191476,-4.0593 -8.19067546,-6.7275 1.0307344,-0.8314 2.2635158,0.1574 3.667034,-0.1504 5.0767469,-0.7569 8.7718469,-2.8772 10.641317,-6.0394 9.0468236,-16.1003 21.0852016,-27.3624 39.7470556,-33.3434 3.471324,1.1449 7.878298,1.2716 10.049444,3.8278"
           sodipodi:nodetypes="ccccccccc" />
        <path
           inkscape:connector-curvature="0"
           id="path1262"
           style="fill:#151515;fill-opacity:1;fill-rule:evenodd;stroke:none"
           d="m -5.8440044,1054.1841 c -5.9682136,-6.5328 -20.6456286,6.0934 -21.1687496,12.3407 -0.68875,7.2067 1.03,12.9004 3.59625,17.855 10.715,-5.7133 25.9715738,-19.0328 17.5724996,-30.1957 z m -15.4974996,31.457 c 3.4775,7.794 12.3337496,9.3437 22.5024996,9.3667 14.9271454,-1.4963 19.2026794,-21.4598 32.8225024,-30.7627 9.06375,-5.46 17.97875,-11.0498 30.4225,-13.5963 13.665,-1.996 22.49125,1.6314 34.13125,1.9874 3.211252,-0.1074 5.822592,-1.0879 9.272502,-0.9736 7.35949,0.071 21.84095,1.1623 26.5275,2.5551 9.52251,2.8752 23.95268,10.3127 26.52375,21.5274 1.76875,11.7574 -1.82625,21.2651 -14.44875,18.919 -4.45638,-0.9955 -5.95125,-5.3316 -7.25375,-9.939 -0.2725,-1.814 -0.28385,-3.5243 0.53125,-4.2876 2.04315,-1.6233 4.6076,-1.3174 5.485,-2.3912 1.1025,-1.4213 1.36375,-3.5663 1.855,-5.5175 -0.475,-5.8638 -4.16875,-10.126 -8.57,-12.3887 -10.045,-5.1626 -22.38375,-6.9199 -35.53,-5.564 15.93625,0.834 25.615,19.9116 20.33375,37.2812 -3.44625,11.5279 -12.025,18.6314 -23.466252,23.2702 -12.2625,2.2777 -21.32375,-0.8863 -23.0175,-12.4434 -0.39125,-8.3291 1.7275,-14.5 9.59,-15.7251 6.316607,0.4177 7.408393,13.4117 13.785002,13.9833 2.4175,-0.3583 4.05125,0.19 6.4975,-0.2021 9.73375,-1.4551 13.7675,-10.5079 15.2025,-16.4239 2.275,-17.0863 -9.07625,-27.6801 -24.995002,-27.5897 5.845002,4.896 13.831252,11.0625 16.217502,20.0307 1.3025,7.0254 -3.585,12.9068 -9.99625,14.0542 -5.217502,-0.5703 -8.778752,-3.0664 -10.486252,-7.7139 -0.51,-3.4624 0.575,-5.5126 2.05125,-6.665 5.14375,-0.7661 4.55625,6.395 9.171252,5.2627 2.88625,-1.1026 3.6725,-3.1505 4.62875,-6.293 -2.8,-14.4097 -17.040104,-18.1939 -31.760461,-17.7853 -0.660016,0.031 -0.725046,0.032 -1.270791,0.1417 -34.56625,6.2036 -44.27625,41.4126 -81.1462524,39.7461 -7.8824996,-1.4585 -14.1149996,-4.8286 -18.0812496,-10.8296 -11.54,5.3311 -27.35875,9.5284 -40.8875,6.1611 -1.445804,-0.3512 -1.652756,-0.401 -2.834274,-0.7182 -4.726607,-1.1832 -8.774477,-2.938 -12.939477,-5.7519 -11.306562,-7.0181 4.335178,-24.9364 9.147501,-21.6372 6.925305,5.0009 -2.750324,11.6057 0.395,16.6797 8.635,14.9486 31.34,11.5576 45.86625,3.6616 -4.53875,-7.359 -7.09875,-17.4687 -6.02,-27.588 1.344643,-10.0584 11.2425,-27.9107 24.7849996,-20.8212 12.38625,8.8414 7.66,29.0865 -0.525,38.5527 -4.1296426,4.4781 -9.0499996,7.4937 -14.5162496,10.4273"
           sodipodi:nodetypes="ccccccccccccccccccccccccccccccccccccccccccccccc" />
        <path
           inkscape:connector-curvature="0"
           id="path1264"
           style="fill:#151515;fill-opacity:1;fill-rule:evenodd;stroke:none"
           d="m -52.437754,1055.9575 c 4.165,-0.2475 8.79125,-1.0274 10.32625,1.7802 -4.655,3.896 -10.950267,7.0195 -12.6375,12.835 -1.6375,6.5684 0.7575,12.9898 4.07625,16.6875 -1.514286,0.7482 -3.020851,0.4607 -4.060673,-0.096 -7.762949,-3.9436 -12.888077,-20.5363 -7.050577,-27.3938 2.634382,-2.8819 4.081507,-3.3054 9.34625,-3.8125"
           sodipodi:nodetypes="ccccccc" />
      </g>
    </g>
  </g>
</svg>
