<?xml version="1.0" encoding="UTF-8" standalone="no"?>
<!-- Created with Inkscape (http://www.inkscape.org/) -->

<svg
   xmlns:dc="http://purl.org/dc/elements/1.1/"
   xmlns:cc="http://creativecommons.org/ns#"
   xmlns:rdf="http://www.w3.org/1999/02/22-rdf-syntax-ns#"
   xmlns:svg="http://www.w3.org/2000/svg"
   xmlns="http://www.w3.org/2000/svg"
   xmlns:sodipodi="http://sodipodi.sourceforge.net/DTD/sodipodi-0.dtd"
   xmlns:inkscape="http://www.inkscape.org/namespaces/inkscape"
   width="800"
   height="600"
   id="svg13234"
   version="1.1"
   inkscape:version="0.48.4 r9939"
   sodipodi:docname="label_overlay.svg">
  <defs
     id="defs13236">
    <marker
       inkscape:stockid="DotSuK"
       orient="auto"
       refY="0"
       refX="0"
       id="DotSuK"
       style="overflow:visible">
      <path
         inkscape:connector-curvature="0"
         id="path12813"
         d="m -2.5,-1 c 0,2.76 -2.24,5 -5,5 -2.76,0 -5,-2.24 -5,-5 0,-2.76 2.24,-5 5,-5 2.76,0 5,2.24 5,5 z"
         style="fill:#a6f091;fill-rule:evenodd;stroke:#a6f091;stroke-width:1pt"
         transform="matrix(0.2,0,0,0.2,1.48,0.2)" />
    </marker>
    <marker
       inkscape:stockid="DotSQ2"
       orient="auto"
       refY="0"
       refX="0"
       id="DotSQ2"
       style="overflow:visible">
      <path
         inkscape:connector-curvature="0"
         id="path12819"
         d="m -2.5,-1 c 0,2.76 -2.24,5 -5,5 -2.76,0 -5,-2.24 -5,-5 0,-2.76 2.24,-5 5,-5 2.76,0 5,2.24 5,5 z"
         style="fill:#a6f091;fill-rule:evenodd;stroke:#a6f091;stroke-width:1pt"
         transform="matrix(0.2,0,0,0.2,1.48,0.2)" />
    </marker>
    <marker
       inkscape:stockid="DotS0G"
       orient="auto"
       refY="0"
       refX="0"
       id="DotS0G"
       style="overflow:visible">
      <path
         inkscape:connector-curvature="0"
         id="path12816"
         d="m -2.5,-1 c 0,2.76 -2.24,5 -5,5 -2.76,0 -5,-2.24 -5,-5 0,-2.76 2.24,-5 5,-5 2.76,0 5,2.24 5,5 z"
         style="fill:#a6f091;fill-rule:evenodd;stroke:#a6f091;stroke-width:1pt"
         transform="matrix(0.2,0,0,0.2,1.48,0.2)" />
    </marker>
  </defs>
  <sodipodi:namedview
     id="base"
     pagecolor="#ffffff"
     bordercolor="#666666"
     borderopacity="1.0"
     inkscape:pageopacity="0.0"
     inkscape:pageshadow="2"
     inkscape:zoom="0.98994949"
     inkscape:cx="768.99017"
     inkscape:cy="399.41344"
     inkscape:document-units="px"
     inkscape:current-layer="layer1"
     showgrid="false"
     inkscape:window-width="1080"
     inkscape:window-height="710"
     inkscape:window-x="435"
     inkscape:window-y="120"
     inkscape:window-maximized="0" />
  <metadata
     id="metadata13239">
    <rdf:RDF>
      <cc:Work
         rdf:about="">
        <dc:format>image/svg+xml</dc:format>
        <dc:type
           rdf:resource="http://purl.org/dc/dcmitype/StillImage" />
      </cc:Work>
    </rdf:RDF>
  </metadata>
  <g
     inkscape:label="Layer 1"
     inkscape:groupmode="layer"
     id="layer1"
     transform="translate(0,-452.36218)">
    <path
       sodipodi:nodetypes="ccc"
       style="fill:none;stroke:#a6f091;stroke-width:2;stroke-linecap:round;stroke-linejoin:miter;stroke-miterlimit:4;stroke-opacity:1;stroke-dasharray:none;marker-start:url(#DotS0G);marker-end:none;opacity:0.5"
       d="M 368.23437,595.73258 322.347,563.87386 0,563.87386"
       id="path8318"
       inkscape:connector-curvature="0" />
    <path
       inkscape:connector-curvature="0"
       id="path11205"
       d="m 483.86566,658.23537 77.5066,-54.48975 78.62774,0"
       style="opacity:0.5;fill:none;stroke:#a6f091;stroke-width:2;stroke-linecap:butt;stroke-linejoin:miter;stroke-miterlimit:4;stroke-opacity:1;stroke-dasharray:none;marker-start:url(#DotSQ2)"
       sodipodi:nodetypes="ccc" />
    <path
       style="opacity:0.5;fill:none;stroke:#a6f091;stroke-width:2;stroke-linecap:butt;stroke-linejoin:miter;stroke-miterlimit:4;stroke-opacity:1;stroke-dasharray:none;marker-start:url(#DotSuK)"
       d="M 225.64707,809.16487 189.20524,834.78518 0,834.78518"
       id="path11956"
       inkscape:connector-curvature="0"
       sodipodi:nodetypes="ccc" />
  </g>
</svg>
